<?xml version="1.0" encoding="utf-8"?>
<!-- Generator: Adobe Illustrator 24.2.1, SVG Export Plug-In . SVG Version: 6.00 Build 0)  -->
<svg version="1.1" id="ffb55883-6880-4c99-84fd-4a8eccb5f463"
	 xmlns="http://www.w3.org/2000/svg" xmlns:xlink="http://www.w3.org/1999/xlink" x="0px" y="0px" viewBox="0 0 887.5 444"
	 style="enable-background:new 0 0 887.5 444;" xml:space="preserve">
<style type="text/css">
	.st0{fill:#E6E6E6;}
	.st1{fill:#FFB8B8;}
	.st2{fill:#D0CDE1;}
	.st3{fill:#2F2E41;}
	.st4{fill:#3F3D56;}
	.st5{fill:#6C63FF;}
	.st6{opacity:0.3;enable-background:new    ;}
</style>
<rect x="0" y="29.4" class="st0" width="395" height="197.5"/>
<g>
	<path class="st0" d="M473.8,404.9l-9.4-2.7c-1.7-4.3-3.1-8.7-4.2-13.1l4.4-0.2l-4.8-1.4c-1.4-5.5-2-9.3-2-9.3s19,5.7,33.3,16.7
		l1.8,12.4l1.7-9.5c1.6,1.4,3,2.9,4.4,4.4c13.8,15.8,19.7,33.1,13.4,38.7s-22.7-2.8-36.4-18.6c-4.3-5.1-7.7-10.9-10.2-17.1
		L473.8,404.9z"/>
	<path class="st0" d="M828.2,348.6l5.3-21c9.5-4,19.1-7.5,29-10.4l0.7,9.8l2.7-10.8c12.2-3.5,20.5-5,20.5-5s-11.2,42.7-34.8,75.3
		l-27.4,4.8l21.3,3.1c-3,3.6-6.1,6.9-9.5,10.1c-34.2,31.8-72.4,46.4-85.2,32.6s4.6-50.7,38.8-82.5c10.6-9.9,23.9-17.8,37.3-24
		L828.2,348.6z"/>
	<path class="st0" d="M777.5,325.7l-6.3-20.8c6-8.3,12.5-16.3,19.4-23.9l5.6,8l-3.2-10.6c8.7-9.3,15-14.9,15-14.9
		s12.5,42.3,9.2,82.4l-21,18.3l19.8-8.4c-0.7,4.6-1.7,9.1-2.9,13.6c-12.9,44.9-38,77.1-56.1,71.9s-22.3-45.8-9.4-90.7
		c4-13.9,11.3-27.6,19.5-39.8L777.5,325.7z"/>
	<polygon class="st1" points="692.2,412.6 690,422.5 674.6,421.4 675.7,410.4 	"/>
	<polygon class="st1" points="730.7,412.6 732.9,422.5 748.4,421.4 747.3,410.4 	"/>
	<circle class="st1" cx="735.1" cy="70.2" r="20.9"/>
	<polygon class="st1" points="748.4,75.7 753.9,101 726.3,109.8 727.4,77.9 	"/>
	<path class="st2" d="M738.4,104.3l13.9-10.5c0,0,2.7-3.8,3.8-0.5c1.1,3.3,11,15.4,11,15.4l-7.7,90.3l-58.4,1.1
		c0,0,22.8-105.3,25.7-101.6C729.6,102.1,737.3,102.1,738.4,104.3z"/>
	<path class="st3" d="M726.9,91.6c0,0,4.4,4.4,2.2,7.7c-2.2,3.3-0.6,9.4-2.8,9.9c-2.2,0.5,2.2,38-4.4,47.9
		c-6.6,9.9-3.3,35.2-3.3,39.6s-6.6,30.8-6.6,30.8s-22,2.2-22-3.3s7.7-44,7.7-44l-6.6-68.3c0,0,0-6.6,7.7-8.8s23.1-7.7,23.1-7.7
		L726.9,91.6z"/>
	<path class="st1" d="M695.5,171.5h5.5c0,0,28.6,2.2,26.4-9.9s-24.2-3.3-24.2-3.3l-6.6,3.3L695.5,171.5z"/>
	<path class="st3" d="M751.4,89.8c0,0,9,5.7,10.1,7.9S788,112,788,120.8s-7.7,18.7-7.7,18.7l-9.9,96.9c0,0-16.5,5.5-17.6,1.1
		c-1.1-4.4-5.5-101.3-3.3-105.7c2.2-4.4,2.2-33,2.2-33L751.4,89.8z"/>
	<path class="st1" d="M780.3,249.7l1.1,6.6c0,0-1.1,22-9.9,20.9c-8.8-1.1-3.3-23.1-3.3-23.1l1.1-4.4L780.3,249.7z"/>
	<path class="st3" d="M767.1,193.5c0,0-1.1,99.1-6.6,131c-5.5,31.9-7.7,87-7.7,87s-14.3,2.2-16.5,3.3c-2.2,1.1-7.7-2.2-7.7-2.2
		l-1.1-163l-20.9,73.8c0,0-3.3,89.2-9.9,91.4c-6.6,2.2-26.4-2.2-26.4-2.2s7.7-84.8,9.9-88.1c2.2-3.3,7.7-100.2,16.5-117.8l3.3-12.1
		C699.9,194.6,762.7,196.8,767.1,193.5z"/>
	<path class="st3" d="M688.9,418.1c0,0,5.5-4.4,5.5-1.1s5.5,23.7-1.1,23.7c-6.6,0-50.7,3.9-49.6-5c1.1-8.8,27.6-22.9,27.6-22.9
		s9.8,3.1,10.9,4.2S688.9,418.1,688.9,418.1z"/>
	<path class="st3" d="M734,418.1c0,0-5.5-4.4-5.5-1.1s-5.5,23.7,1.1,23.7c6.6,0,50.7,3.9,49.6-5s-27.6-22.9-27.6-22.9
		s-9.8,3.1-10.9,4.2C739.5,418.1,734,418.1,734,418.1z"/>
	<path class="st3" d="M698.8,110.9l-7.7,1.1l-15.4,44c0,0-4.4,22,2.2,25.3c6.6,3.3,19.1,2.7,19.1,2.7l1.8-24.7l-5.5,1.1l5.5-11
		V110.9z"/>
	<path class="st3" d="M782.5,116.4l5.5,4.4c0,0,5.5,56.2,4.4,61.7c-1.1,5.5-7.7,72.7-7.7,72.7l-18.7-4.4l13.2-133.2L782.5,116.4z"/>
	<path class="st3" d="M758.3,55c0,0,6.1-7.7,0-11.6v1.9c0,0-13.1-14.5-20.9-10.6l-7-1.9v1.9l-4.4-1.9l0.9,2.9h-6.1l2.6,1.9
		c0,0-20-1-7.8,13.5c0,0-5.8,8.7-0.3,13.5c0,0,4.6-10.6,10.7-7.7c3.4,1.7,7.5,1.4,10.4-1c0,0,12.2-1,10.4,4.8s-0.9,7.7-0.9,7.7
		s4.4,2.9,3.5,4.8s-0.9,7.7-0.9,7.7s4.4-6.8,6.1-5.8C756.5,76.2,766.1,66.6,758.3,55z"/>
	<polygon class="st3" points="519.6,124.1 565.9,125.3 572.1,70.1 519.6,70.1 	"/>
	<path class="st3" d="M568.6,195.7l16.9,117.2c0,0,14.6,41.7,15.8,62l4.5,29.3l-20.3,4.5l-21.4-82.3L534.8,252l3.4,85.6l6.8,69.9
		l-20.3,3.4l-12.4-89l-13.5-65.3c0,0-10.1-56.3,5.6-62L568.6,195.7z"/>
	<path class="st3" d="M586.8,396.9l2.3,27.4c0,0-24.1,14-16.4,16.7c7.7,2.7,18.3-0.8,20.5-1.4c2.3-0.6,6.6-1.7,9.8-2.5
		c3.1-0.7,5.3-3.3,5.6-6.5l0-0.1c0.2-3.4-7.4-32.7-7.4-32.7L586.8,396.9z"/>
	<path class="st3" d="M528.2,397.6l-1.9,26.2c0,0-27.5,10.2-20.4,14.3s18.2,2.7,20.4,2.6c4.1-0.3,14.4-0.7,14.4-0.7s1.9,1.6,2.7-1.6
		s-1.1-32.5-1.1-32.5L528.2,397.6z"/>
	<circle class="st1" cx="544.9" cy="79.6" r="21.4"/>
	<polygon class="st1" points="557.3,92 561.8,116.8 542.7,125.8 538.2,94.3 	"/>
	<path class="st1" d="M559.6,209.2l-23.7,16.9c0,0-10.1,25.9-18,21.4s9-27,9-27l19.2-19.2L559.6,209.2z"/>
	<path class="st1" d="M492,201.3l-2.3,13.5c0,0,5.6,28.2,12.4,22.5s-2.3-23.7-2.3-23.7l1.1-11.3L492,201.3z"/>
	<path class="st2" d="M544.9,119.1l2.3-9l13.5-6.8l4.5,5.6l14.6,4.5l-16.9,90.1c0,0-57.5,3.4-58.6-5.6s11.3-33.8,11.3-33.8
		s-3.4-12.4-2.3-19.2l4.5-27l18-5.6l4.1-5l3.8,6.1L544.9,119.1z"/>
	<path class="st2" d="M576.5,115.7l3.4-2.3c0,0,6.8,1.1,9,10.1c2.3,9,0,49.6-5.6,57.5c-5.6,7.9-21.4,31.5-21.4,31.5l-21.4-10.1
		l22.5-25.9l5.6-32.7L576.5,115.7z"/>
	<path class="st2" d="M526.9,120.2l-9-2.3c0,0-5.6,2.3-7.9,10.1s-14.6,47.3-13.5,50.7s-10.1,25.9-10.1,25.9l15.8,1.1l9-23.7l9-23.7
		L526.9,120.2z"/>
	<path class="st3" d="M582,100c-4.5-2.5-6.6-8-6.8-13.2c-0.1-5.1,1.1-10.2,1.2-15.4c0.1-1.1,0-2.1-0.3-3.1c-0.4-1.3-1-2.5-1.7-3.6
		c-5.9-9-16.1-15.3-26.8-15.4c-1.6,0-3.1,0.3-4.5,0.8c-1.1,0.4-1.5,0.4-1.7,1.8c-2.5-0.8-5.3-0.8-7.8,0.2c-2.5,1-4.8,2.4-6.8,4.1
		c-1.2,0.9-2.4,1.9-3.4,3c-5.7,5.9-7,15-5.3,23c0.5,2.6-2,5.1-4.2,6.7s-4.6,3.1-5.6,5.5c-1,2.4-0.5,5-0.7,7.6
		c-0.5,4.9-3.7,9.1-8.3,10.9c0.9,1.1,2.4,1.6,3.9,1.4c1.5-0.3,2.8-1,4-1.9c4.4-3.3,7.5-7.9,8.9-13.2c0.6,2.8,0.4,5.8,0.4,8.7
		c0.1,3.2-0.5,6.5-1.8,9.5c-1.2,3-3.5,5.5-6.4,7c2.8,1.4,5.9,0.4,8.2-1.6c2.3-2.1,3.9-4.9,4.7-7.9c1.6-4.8,2.2-9.9,1.9-14.9
		c2.6,4.4,3.5,9.5,2.7,14.5c-0.9,5.1-3.6,9.7-7.5,13.1c6.9-0.1,13.7-1.8,19.8-5c1.6-0.7,3-1.8,4.1-3.1c2-2.7,1.5-6.4,0.9-9.8
		c-0.4-2.6,2.8-6.4,1-8.3c-0.6-0.6-1.3-0.9-2.1-0.9c-5.7-0.4-10.9-3.5-14-8.3c-2.2-3.2-3.4-7-3.5-10.9c0-11,8.9-19.9,19.9-19.9
		c11,0,19.9,8.9,19.9,19.9c0,2-0.3,4-0.9,5.9c-0.7,2.2-1.2,4.5-1.4,6.7c-0.3,2.7-0.9,5.3-1.6,7.8c-1.4,4.9-3.8,10-8.3,12.6
		c1.6,0.7,3.2,1,4.9,1c5.6,0.6,11.4,0.5,16.5-2C578.4,110.8,582.4,105.6,582,100z"/>
	<path class="st3" d="M569.8,78.1c-16-6.4-31.8-7.8-47.2,0V65.2c0-4.7,3.8-8.4,8.4-8.4h32.1c3.7,0,6.7,3,6.7,6.7l0,0V78.1z"/>
	<ellipse class="st1" cx="564.9" cy="82.4" rx="2.4" ry="3.8"/>
	<rect x="366.5" y="440.9" class="st4" width="520" height="2"/>
</g>
<path class="st4" d="M429.4,199.5h-397V0h397V199.5z M34.3,197.5h393V2h-393L34.3,197.5z"/>
<path class="st5" d="M229.7,164.3c0,8.9-7.2,16.1-16.2,16.1c-8.9,0-16.1-7.2-16.1-16.1c0-8.9,7.2-16.1,16.1-16.1
	C222.5,148.1,229.7,155.3,229.7,164.3C229.7,164.2,229.7,164.3,229.7,164.3z"/>
<path class="st6" d="M229.7,164.3c0,8.9-7.2,16.1-16.2,16.1c-8.9,0-16.1-7.2-16.1-16.1c0-8.9,7.2-16.1,16.1-16.1
	C222.5,148.1,229.7,155.3,229.7,164.3C229.7,164.2,229.7,164.3,229.7,164.3z"/>
<path class="st5" d="M259,82.9c0,5.3-1.1,10.5-3.2,15.3c-0.9,2.1-2,4.1-3.3,6c-2.6,3.8-5.8,7.3-9.4,10.2c-0.6,0.5-1.3,1.1-2.2,1.8
	c-1.1,0.9-2.4,1.7-3.9,2.7c-2.6,1.7-5.1,3.5-7.4,5.4c-1.4,1.1-2.6,2.4-3.6,3.9c-1.2,2.1-1.9,6.3-1.9,12.4v1h-27v-4.7
	c0-3.7,0.1-6.7,0.3-9.4c0.1-2.4,0.4-4.8,0.8-7.3c0.3-2.1,0.9-4.2,1.9-6c1.8-3,6-7,13-12.3c0.3-0.2,0.6-0.5,0.9-0.7
	c0.3-0.2,0.6-0.4,0.9-0.6c2.4-1.7,4.7-3.7,6.7-5.9c0.6-0.7,1.1-1.4,1.6-2.2l0.1-0.2c1.6-2.8,2.3-5.9,2.2-9.1c0-0.8,0-1.6-0.2-2.4
	c-0.3-3.1-1.8-6-4.1-8.1c-2.5-2.3-5.7-3.6-9.1-3.8c-0.4,0-0.8,0-1.2,0c-1.6,0-3.2,0.2-4.7,0.6c-2.9,0.7-5.5,2.3-7.4,4.6
	c-1,1.2-1.9,2.5-2.6,4c-2.4,5.5-3.9,11.2-4.5,17.1l-0.1,1l-25.4-6.8V78.2c0.1-0.5,0.3-0.9,0.4-1.3c1.6-5.6,4.2-10.9,7.6-15.6
	c1.5-2,3.1-3.9,4.9-5.6c0.4-0.4,0.9-0.9,1.4-1.3c3.1-2.7,6.4-4.9,10.1-6.6l0.3-0.1c6.9-3.2,14.4-4.8,22-4.7c0.8,0,1.7,0,2.6,0.1
	c7.6,0.2,15,2.1,21.7,5.5c3,1.6,5.8,3.5,8.4,5.7c7.2,5.9,11.9,14.4,13,23.7C258.9,79.5,259,81.2,259,82.9z"/>
<path class="st6" d="M259,82.9c0,5.3-1.1,10.5-3.2,15.3c-0.9,2.1-2,4.1-3.3,6c-2.6,3.8-5.8,7.3-9.4,10.2c-0.6,0.5-1.3,1.1-2.2,1.8
	c-1.1,0.9-2.4,1.7-3.9,2.7c-2.6,1.7-5.1,3.5-7.4,5.4c-1.4,1.1-2.6,2.4-3.6,3.9c-1.2,2.1-1.9,6.3-1.9,12.4v1h-27v-4.7
	c0-3.7,0.1-6.7,0.3-9.4c0.1-2.4,0.4-4.8,0.8-7.3c0.3-2.1,0.9-4.2,1.9-6c1.8-3,6-7,13-12.3c0.3-0.2,0.6-0.5,0.9-0.7
	c0.3-0.2,0.6-0.4,0.9-0.6c2.4-1.7,4.7-3.7,6.7-5.9c0.6-0.7,1.1-1.4,1.6-2.2l0.1-0.2c1.6-2.8,2.3-5.9,2.2-9.1c0-0.8,0-1.6-0.2-2.4
	c-0.3-3.1-1.8-6-4.1-8.1c-2.5-2.3-5.7-3.6-9.1-3.8c-0.4,0-0.8,0-1.2,0c-1.6,0-3.2,0.2-4.7,0.6c-2.9,0.7-5.5,2.3-7.4,4.6
	c-1,1.2-1.9,2.5-2.6,4c-2.4,5.5-3.9,11.2-4.5,17.1l-0.1,1l-25.4-6.8V78.2c0.1-0.5,0.3-0.9,0.4-1.3c1.6-5.6,4.2-10.9,7.6-15.6
	c1.5-2,3.1-3.9,4.9-5.6c0.4-0.4,0.9-0.9,1.4-1.3c3.1-2.7,6.4-4.9,10.1-6.6l0.3-0.1c6.9-3.2,14.4-4.8,22-4.7c0.8,0,1.7,0,2.6,0.1
	c7.6,0.2,15,2.1,21.7,5.5c3,1.6,5.8,3.5,8.4,5.7c7.2,5.9,11.9,14.4,13,23.7C258.9,79.5,259,81.2,259,82.9z"/>
<path class="st5" d="M218.7,164.3c0,8.9-7.2,16.1-16.2,16.1c-8.9,0-16.1-7.2-16.1-16.1c0-8.9,7.2-16.1,16.1-16.1
	C211.5,148.1,218.7,155.3,218.7,164.3C218.7,164.2,218.7,164.3,218.7,164.3z"/>
<path class="st5" d="M248,82.9c0,5.3-1.1,10.5-3.2,15.3c-0.9,2.1-2,4.1-3.3,6c-2.6,3.8-5.8,7.3-9.4,10.2c-0.6,0.5-1.3,1.1-2.2,1.8
	c-1.1,0.9-2.4,1.7-3.9,2.7c-2.6,1.7-5.1,3.5-7.4,5.4c-1.4,1.1-2.6,2.4-3.6,3.9c-1.2,2.1-1.9,6.3-1.9,12.4v1h-27v-4.7
	c0-3.7,0.1-6.7,0.3-9.4c0.1-2.4,0.4-4.8,0.8-7.3c0.3-2.1,0.9-4.2,1.9-6c1.8-3,6-7,13-12.3c0.3-0.2,0.6-0.5,0.9-0.7
	c0.3-0.2,0.6-0.4,0.9-0.6c2.4-1.7,4.7-3.7,6.7-5.9c0.6-0.7,1.1-1.4,1.6-2.2l0.1-0.2c1.6-2.8,2.3-5.9,2.2-9.1c0-0.8,0-1.6-0.2-2.4
	c-0.3-3.1-1.8-6-4.1-8.1c-2.5-2.3-5.7-3.6-9.1-3.8c-0.4,0-0.8,0-1.2,0c-1.6,0-3.2,0.2-4.7,0.6c-2.9,0.7-5.5,2.3-7.4,4.6
	c-1,1.2-1.9,2.5-2.6,4c-1.8,3.6-3,8.4-3.5,14.1l-0.1,1L153,89l0.1-1c0.5-3.8,1.3-7.6,2.4-11.2c1.6-5.6,4.2-10.9,7.6-15.6
	c1.5-2,3.1-3.9,4.9-5.6c0.4-0.4,0.9-0.9,1.4-1.3c3.1-2.7,6.4-4.9,10.1-6.6l0.3-0.1c6.9-3.2,14.4-4.8,22-4.7c0.8,0,1.7,0,2.6,0.1
	c7.6,0.2,15,2.1,21.7,5.5c3,1.6,5.8,3.5,8.4,5.7c7.2,5.9,11.9,14.4,13,23.7C247.9,79.5,248,81.2,248,82.9z"/>
</svg>
